<mxfile host="65bd71144e">
    <diagram id="FQAlKNGdWY8Nyp4t4DwU" name="Page-1">
        <mxGraphModel dx="1061" dy="722" grid="1" gridSize="10" guides="1" tooltips="1" connect="1" arrows="1" fold="1" page="1" pageScale="1" pageWidth="850" pageHeight="1100" math="0" shadow="0">
            <root>
                <mxCell id="0"/>
                <mxCell id="1" parent="0"/>
                <mxCell id="2" value="FRONT PAGE" style="swimlane;" vertex="1" parent="1">
                    <mxGeometry x="100" y="70" width="590" height="430" as="geometry"/>
                </mxCell>
                <mxCell id="3" value="" style="rounded=0;whiteSpace=wrap;html=1;fillColor=#f9f7ed;strokeColor=#36393d;" vertex="1" parent="2">
                    <mxGeometry y="20" width="590" height="410" as="geometry"/>
                </mxCell>
                <mxCell id="4" value="" style="rounded=1;whiteSpace=wrap;html=1;fillColor=#e6d0de;strokeColor=#996185;gradientColor=#d5739d;" vertex="1" parent="2">
                    <mxGeometry x="50" y="40" width="480" height="30" as="geometry"/>
                </mxCell>
                <mxCell id="5" value="You Team" style="text;html=1;strokeColor=none;fillColor=none;align=center;verticalAlign=middle;whiteSpace=wrap;rounded=0;" vertex="1" parent="2">
                    <mxGeometry x="70" y="40" width="60" height="30" as="geometry"/>
                </mxCell>
                <mxCell id="6" value="List Of Heros" style="text;html=1;strokeColor=none;fillColor=none;align=center;verticalAlign=middle;whiteSpace=wrap;rounded=0;" vertex="1" parent="2">
                    <mxGeometry x="147" y="40" width="83" height="30" as="geometry"/>
                </mxCell>
                <mxCell id="7" value="Search:" style="text;html=1;strokeColor=none;fillColor=none;align=center;verticalAlign=middle;whiteSpace=wrap;rounded=0;" vertex="1" parent="2">
                    <mxGeometry x="245" y="40" width="60" height="30" as="geometry"/>
                </mxCell>
                <mxCell id="8" value="search here" style="rounded=1;whiteSpace=wrap;html=1;" vertex="1" parent="2">
                    <mxGeometry x="300" y="45" width="180" height="20" as="geometry"/>
                </mxCell>
                <mxCell id="21" value="Your Team" style="rounded=1;whiteSpace=wrap;html=1;fillColor=#e6d0de;strokeColor=#996185;gradientColor=#d5739d;" vertex="1" parent="2">
                    <mxGeometry x="200" y="80" width="140" height="20" as="geometry"/>
                </mxCell>
                <mxCell id="22" value="picture of here" style="rounded=0;whiteSpace=wrap;html=1;" vertex="1" parent="2">
                    <mxGeometry x="60" y="155" width="80" height="120" as="geometry"/>
                </mxCell>
                <mxCell id="23" value="name of hero" style="rounded=0;whiteSpace=wrap;html=1;" vertex="1" parent="2">
                    <mxGeometry x="60" y="135" width="80" height="15" as="geometry"/>
                </mxCell>
                <mxCell id="25" value="picture of here" style="rounded=0;whiteSpace=wrap;html=1;" vertex="1" parent="2">
                    <mxGeometry x="190" y="155" width="80" height="120" as="geometry"/>
                </mxCell>
                <mxCell id="26" value="name of hero" style="rounded=0;whiteSpace=wrap;html=1;" vertex="1" parent="2">
                    <mxGeometry x="190" y="135" width="80" height="15" as="geometry"/>
                </mxCell>
                <mxCell id="28" value="picture of here" style="rounded=0;whiteSpace=wrap;html=1;" vertex="1" parent="2">
                    <mxGeometry x="320" y="155" width="80" height="120" as="geometry"/>
                </mxCell>
                <mxCell id="29" value="name of hero" style="rounded=0;whiteSpace=wrap;html=1;" vertex="1" parent="2">
                    <mxGeometry x="320" y="135" width="80" height="15" as="geometry"/>
                </mxCell>
                <mxCell id="31" value="picture of here" style="rounded=0;whiteSpace=wrap;html=1;" vertex="1" parent="2">
                    <mxGeometry x="440" y="155" width="80" height="120" as="geometry"/>
                </mxCell>
                <mxCell id="32" value="name of hero" style="rounded=0;whiteSpace=wrap;html=1;" vertex="1" parent="2">
                    <mxGeometry x="440" y="135" width="80" height="15" as="geometry"/>
                </mxCell>
                <mxCell id="35" value="&lt;font color=&quot;#ff99cc&quot;&gt;Logout&lt;/font&gt;" style="text;html=1;fillColor=none;align=center;verticalAlign=middle;whiteSpace=wrap;rounded=0;" vertex="1" parent="2">
                    <mxGeometry y="20" width="50" height="20" as="geometry"/>
                </mxCell>
            </root>
        </mxGraphModel>
    </diagram>
</mxfile>